<svg width="18" height="16" viewBox="0 0 18 16" fill="none" xmlns="http://www.w3.org/2000/svg">
<path d="M17.3333 13.5041C17.3333 13.6698 17.2675 13.8288 17.1503 13.946C17.0331 14.0632 16.8741 14.1291 16.7083 14.1291H12.4583C12.3191 14.6481 12.0126 15.1068 11.5862 15.4339C11.1598 15.761 10.6374 15.9383 10.1 15.9383C9.56258 15.9383 9.04019 15.761 8.6138 15.4339C8.18742 15.1068 7.88086 14.6481 7.74166 14.1291H1.29166C1.1259 14.1291 0.966925 14.0632 0.849715 13.946C0.732504 13.8288 0.666656 13.6698 0.666656 13.5041C0.666656 13.3383 0.732504 13.1793 0.849715 13.0621C0.966925 12.9449 1.1259 12.8791 1.29166 12.8791H7.74166C7.88086 12.36 8.18742 11.9014 8.6138 11.5743C9.04019 11.2472 9.56258 11.0699 10.1 11.0699C10.6374 11.0699 11.1598 11.2472 11.5862 11.5743C12.0126 11.9014 12.3191 12.36 12.4583 12.8791H16.7083C16.8741 12.8791 17.0331 12.9449 17.1503 13.0621C17.2675 13.1793 17.3333 13.3383 17.3333 13.5041ZM17.3333 2.49573C17.3333 2.66149 17.2675 2.82047 17.1503 2.93768C17.0331 3.05489 16.8741 3.12073 16.7083 3.12073H14.6667C14.5275 3.6398 14.2209 4.09844 13.7945 4.42554C13.3681 4.75265 12.8457 4.92995 12.3083 4.92995C11.7709 4.92995 11.2485 4.75265 10.8221 4.42554C10.3958 4.09844 10.0892 3.6398 9.94999 3.12073H1.29166C1.20958 3.12073 1.12831 3.10457 1.05248 3.07316C0.976651 3.04175 0.907751 2.99571 0.849715 2.93768C0.791678 2.87964 0.745641 2.81074 0.714232 2.73491C0.682823 2.65908 0.666656 2.57781 0.666656 2.49573C0.666656 2.41366 0.682823 2.33239 0.714232 2.25656C0.745641 2.18073 0.791678 2.11183 0.849715 2.05379C0.907751 1.99576 0.976651 1.94972 1.05248 1.91831C1.12831 1.8869 1.20958 1.87073 1.29166 1.87073H9.94999C10.0892 1.35167 10.3958 0.893032 10.8221 0.565926C11.2485 0.238821 11.7709 0.0615234 12.3083 0.0615234C12.8457 0.0615234 13.3681 0.238821 13.7945 0.565926C14.2209 0.893032 14.5275 1.35167 14.6667 1.87073H16.7083C16.7907 1.86961 16.8725 1.88501 16.9488 1.91603C17.0252 1.94704 17.0945 1.99303 17.1528 2.05129C17.211 2.10956 17.257 2.1789 17.288 2.25524C17.319 2.33157 17.3344 2.41335 17.3333 2.49573ZM17.3333 7.99573C17.3344 8.07812 17.319 8.1599 17.288 8.23623C17.257 8.31257 17.211 8.38191 17.1528 8.44017C17.0945 8.49844 17.0252 8.54443 16.9488 8.57544C16.8725 8.60645 16.7907 8.62186 16.7083 8.62073H6.95832C6.81912 9.1398 6.51256 9.59844 6.08617 9.92554C5.65979 10.2526 5.13739 10.4299 4.59999 10.4299C4.06258 10.4299 3.54019 10.2526 3.1138 9.92554C2.68742 9.59844 2.38086 9.1398 2.24166 8.62073H1.29166C1.1259 8.62073 0.966925 8.55489 0.849715 8.43768C0.732504 8.32047 0.666656 8.16149 0.666656 7.99573C0.666656 7.82997 0.732504 7.671 0.849715 7.55379C0.966925 7.43658 1.1259 7.37073 1.29166 7.37073H2.24166C2.38086 6.85167 2.68742 6.39303 3.1138 6.06593C3.54019 5.73882 4.06258 5.56152 4.59999 5.56152C5.13739 5.56152 5.65979 5.73882 6.08617 6.06593C6.51256 6.39303 6.81912 6.85167 6.95832 7.37073H16.7083C16.8741 7.37073 17.0331 7.43658 17.1503 7.55379C17.2675 7.671 17.3333 7.82997 17.3333 7.99573Z" fill="#121212"/>
</svg>
