<svg width="54" height="49" viewBox="0 0 54 49" fill="none" xmlns="http://www.w3.org/2000/svg">
<path d="M7.17188 16.1094H6.89062C5.46875 16.1094 4.39844 16.4336 3.67969 17.082C2.8125 17.8633 2.37891 19.1562 2.37891 20.9609C2.37891 21.4609 2.43359 21.8594 2.54297 22.1562C2.57422 22.2578 2.61328 22.3477 2.66016 22.4258C2.69141 22.4805 2.70703 22.5352 2.70703 22.5898C1.83984 22.5898 1.20703 22.418 0.808594 22.0742C0.363281 21.6992 0.140625 21.0977 0.140625 20.2695C0.140625 19.4414 0.292969 18.6562 0.597656 17.9141C0.910156 17.1641 1.38281 16.5078 2.01562 15.9453C2.69531 15.3359 3.55859 14.8633 4.60547 14.5273C5.66016 14.1914 6.90234 14.0234 8.33203 14.0234C9.15234 14.0234 9.9375 14.0703 10.6875 14.1641C10.9219 14.1875 11.2266 14.2305 11.6016 14.293C12.2266 14.4102 12.8281 14.4883 13.4062 14.5273C13.6875 14.5586 14.043 14.5742 14.4727 14.5742C15.0039 14.5742 15.5117 14.5273 15.9961 14.4336C16.4805 14.3398 16.9023 14.2188 17.2617 14.0703C17.2227 15.1172 16.9531 15.8867 16.4531 16.3789C15.9609 16.8711 15.2305 17.1172 14.2617 17.1172C13.7383 17.1172 13.2109 17.0742 12.6797 16.9883C12.1484 16.9023 11.4336 16.7695 10.5352 16.5898L7.21875 32H3.77344L7.17188 16.1094ZM13.8825 18.6992C13.6247 18.6992 13.3786 18.6523 13.1442 18.5586C12.9098 18.457 12.7067 18.3203 12.5348 18.1484C12.363 17.9844 12.2262 17.7852 12.1247 17.5508C12.0309 17.3164 11.9841 17.0703 11.9841 16.8125C11.9841 16.5547 12.0309 16.3086 12.1247 16.0742C12.2262 15.8398 12.363 15.6328 12.5348 15.4531C12.7067 15.2734 12.9098 15.1367 13.1442 15.043C13.3786 14.9414 13.6247 14.8906 13.8825 14.8906C14.1403 14.8906 14.3864 14.9414 14.6208 15.043C14.8552 15.1367 15.0622 15.2734 15.2419 15.4531C15.4216 15.6328 15.5583 15.8398 15.652 16.0742C15.7536 16.3086 15.8044 16.5547 15.8044 16.8125C15.8044 17.0703 15.7536 17.3164 15.652 17.5508C15.5583 17.7852 15.4216 17.9844 15.2419 18.1484C15.0622 18.3203 14.8552 18.457 14.6208 18.5586C14.3864 18.6523 14.1403 18.6992 13.8825 18.6992ZM12.2536 32.1406C11.488 32.1406 10.8825 31.9141 10.4372 31.4609C9.93719 30.9609 9.68719 30.2305 9.68719 29.2695C9.68719 28.8164 9.74969 28.293 9.87469 27.6992L11.5036 20H14.9606L13.238 28.1562C13.1755 28.3594 13.1442 28.6172 13.1442 28.9297C13.1442 29.2578 13.2184 29.4883 13.3669 29.6211C13.5231 29.7539 13.7731 29.8203 14.1169 29.8203C14.3512 29.8203 14.5778 29.7695 14.7966 29.668C15.0231 29.5586 15.2302 29.4102 15.4177 29.2227C15.8005 28.8398 16.0895 28.332 16.2848 27.6992H17.2927C16.863 28.9102 16.3239 29.875 15.6755 30.5938C15.1286 31.1797 14.5114 31.6016 13.8239 31.8594C13.3239 32.0469 12.8005 32.1406 12.2536 32.1406ZM29.2064 32.1406C28.2142 32.1406 27.4798 31.8594 27.0033 31.2969C26.5892 30.8125 26.3822 30.1914 26.3822 29.4336C26.3822 29.0742 26.4252 28.6562 26.5111 28.1797C26.6048 27.7031 26.7416 27.0898 26.9213 26.3398C27.1009 25.5742 27.2338 24.9648 27.3197 24.5117C27.4134 24.0508 27.4603 23.6523 27.4603 23.3164C27.4603 22.4961 27.1713 22.0859 26.5931 22.0859C26.1869 22.0859 25.8119 22.3008 25.4681 22.7305C25.1791 23.0977 24.9291 23.6211 24.7181 24.3008L23.0892 32H19.6322L21.39 23.7148C21.4369 23.5273 21.4603 23.3281 21.4603 23.1172C21.4603 22.7969 21.4095 22.5508 21.308 22.3789C21.1752 22.168 20.9838 22.0625 20.7338 22.0625C20.2806 22.0625 19.8861 22.2812 19.5502 22.7188C19.2533 23.0938 18.9994 23.6211 18.7884 24.3008L17.1595 32H13.7025L16.2455 20H19.7025L19.4447 21.2422C19.9134 20.7188 20.4252 20.3477 20.9798 20.1289C21.4173 19.9648 21.8822 19.8828 22.3744 19.8828C23.0463 19.8828 23.5814 20.0391 23.9798 20.3516C24.4252 20.7031 24.7103 21.2344 24.8353 21.9453C25.3509 21.1484 25.9447 20.5859 26.6166 20.2578C27.0931 20.0234 27.6127 19.9062 28.1752 19.9062C28.9798 19.9062 29.6166 20.1172 30.0853 20.5391C30.5853 21 30.8353 21.6914 30.8353 22.6133C30.8353 23.1367 30.7377 23.8594 30.5423 24.7812C30.4642 25.1641 30.3705 25.5508 30.2611 25.9414C30.0658 26.6914 29.9056 27.3828 29.7806 28.0156C29.7181 28.3438 29.6869 28.6094 29.6869 28.8125C29.6869 29.1328 29.7572 29.3828 29.8978 29.5625C30.0463 29.7344 30.2963 29.8203 30.6478 29.8203C31.1244 29.8203 31.5267 29.625 31.8548 29.2344C32.1048 28.9375 32.3744 28.4258 32.6634 27.6992H33.6713C33.0775 29.457 32.3275 30.6875 31.4213 31.3906C30.7806 31.8906 30.0423 32.1406 29.2064 32.1406ZM34.1709 32.1406C33.0772 32.1406 32.2452 31.875 31.6748 31.3438C31.1045 30.8047 30.8194 30.0469 30.8194 29.0703C30.8194 28.5469 30.8741 28.0898 30.9834 27.6992L33.5498 15.6758L37.1006 15.1953L35.9522 20.5977C36.4131 20.3164 36.8038 20.1289 37.1241 20.0352C37.3584 19.9648 37.6241 19.9297 37.9209 19.9297C38.8194 19.9297 39.503 20.2305 39.9717 20.832C40.4952 21.5117 40.7569 22.5781 40.7569 24.0312C40.7569 24.5312 40.71 25.0742 40.6163 25.6602C40.5225 26.2383 40.378 26.8125 40.1827 27.3828C39.7139 28.75 39.0342 29.8438 38.1436 30.6641C37.0655 31.6484 35.7413 32.1406 34.1709 32.1406ZM35.5186 29.8203C36.003 29.8203 36.4795 29.4961 36.9483 28.8477C37.3545 28.2695 37.6905 27.5117 37.9561 26.5742C38.2061 25.6523 38.3311 24.7734 38.3311 23.9375C38.3311 23.2891 38.2295 22.7578 38.0264 22.3438C37.917 22.1172 37.7803 21.9414 37.6163 21.8164C37.4522 21.6914 37.2647 21.6289 37.0538 21.6289C36.7803 21.6289 36.5342 21.6562 36.3155 21.7109C35.9873 21.7969 35.7608 21.9141 35.6358 22.0625L34.3233 28.1562C34.2764 28.3516 34.253 28.5352 34.253 28.707C34.253 29.4492 34.6748 29.8203 35.5186 29.8203ZM42.3464 32.1406C41.5808 32.1406 40.9753 31.9141 40.53 31.4609C40.03 30.9609 39.78 30.2305 39.78 29.2695C39.78 28.8164 39.8425 28.293 39.9675 27.6992L41.5964 20H45.0534L43.3308 28.1562C43.2839 28.3984 43.2605 28.625 43.2605 28.8359C43.2605 29.4922 43.4987 29.8203 43.9753 29.8203C44.4128 29.8203 44.8073 29.6211 45.1589 29.2227C45.4402 28.8867 45.6862 28.3789 45.8972 27.6992L47.5261 20H50.9831L49.2605 28.1562C49.1902 28.3906 49.155 28.6484 49.155 28.9297C49.155 29.2578 49.2331 29.4883 49.3894 29.6211C49.5456 29.7539 49.7956 29.8203 50.1394 29.8203C50.5847 29.8203 50.9831 29.6211 51.3347 29.2227C51.6472 28.8711 51.8972 28.3633 52.0847 27.6992H53.0925C52.6628 28.918 52.1433 29.8828 51.5339 30.5938C51.0183 31.1797 50.4362 31.6016 49.7878 31.8594C49.3112 32.0469 48.8073 32.1406 48.2761 32.1406C47.5886 32.1406 47.0417 31.9492 46.6355 31.5664C46.2292 31.1836 45.9831 30.6172 45.8972 29.8672C45.3503 30.7422 44.7331 31.3672 44.0456 31.7422C43.5534 32.0078 42.987 32.1406 42.3464 32.1406Z" fill="black"/>
</svg>
